<?xml version="1.0" encoding="utf-8"?>
<!-- Generator: Adobe Illustrator 22.0.1, SVG Export Plug-In . SVG Version: 6.00 Build 0)  -->
<svg version="1.1" id="Layer_1" xmlns="http://www.w3.org/2000/svg" xmlns:xlink="http://www.w3.org/1999/xlink" x="0px" y="0px"
	 viewBox="0 0 30 25.3" style="enable-background:new 0 0 30 25.3;" xml:space="preserve">
<style type="text/css">
	.st0{fill:#B4B4B4;}
</style>
<g>
	<path class="st0" d="M22.2,5.5h-12c-0.6,0-1,0.2-1.3,0.7l-4.3,6.5l4.3,6.5c0.3,0.4,0.7,0.7,1.3,0.7h12c0.9,0,1.6-0.7,1.6-1.6V7.1
		C23.8,6.2,23.1,5.5,22.2,5.5L22.2,5.5z M19.8,15.5l-1.1,1.1l-2.9-2.9l-2.9,2.9l-1.1-1.1l2.9-2.9l-2.9-2.9l1.1-1.1l2.9,2.9l2.9-2.9
		l1.1,1.1l-2.9,2.9L19.8,15.5z M19.8,15.5"/>
</g>
</svg>
