<?xml version="1.0" encoding="utf-8"?>
<!-- Generator: Adobe Illustrator 22.0.1, SVG Export Plug-In . SVG Version: 6.00 Build 0)  -->
<svg version="1.1" id="Capa_1" xmlns="http://www.w3.org/2000/svg" xmlns:xlink="http://www.w3.org/1999/xlink" x="0px" y="0px"
	 viewBox="0 0 500 500" style="enable-background:new 0 0 500 500;" xml:space="preserve">
<style type="text/css">
	.st0{fill:#FFFFFF;}
</style>
<g>
	<path class="st0" d="M375,348.2c0-9.9-8-17.9-17.9-17.9H142.9c-9.9,0-17.9,8-17.9,17.9c0,9.9,8,17.9,17.9,17.9h214.3
		C367,366.1,375,358.1,375,348.2z"/>
	<path class="st0" d="M357.1,133.9H142.9c-9.9,0-17.9,8-17.9,17.9c0,9.9,8,17.9,17.9,17.9h214.3c9.9,0,17.9-8,17.9-17.9
		C375,141.9,367,133.9,357.1,133.9z"/>
	<path class="st0" d="M142.9,267.9h214.3c9.9,0,17.9-8,17.9-17.9c0-9.9-8-17.9-17.9-17.9H142.9c-9.9,0-17.9,8-17.9,17.9
		C125,259.9,133,267.9,142.9,267.9z"/>
</g>
</svg>
