<?xml version="1.0" encoding="utf-8"?>
<!-- Generator: Adobe Illustrator 22.0.1, SVG Export Plug-In . SVG Version: 6.00 Build 0)  -->
<svg version="1.1" xmlns="http://www.w3.org/2000/svg" xmlns:xlink="http://www.w3.org/1999/xlink" x="0px" y="0px"
	 viewBox="0 0 50 50" style="enable-background:new 0 0 50 50;" xml:space="preserve">
<style type="text/css">
	.st0{display:none;}
	.st1{display:inline;}
	.st2{fill:#7D7F81;}
	.st3{display:inline;fill:#7D7F81;}
</style>
<g id="home" class="st0">
	<g class="st1">
		<g>
			<polygon class="st2" points="10.2,17.3 15.6,17.3 15.5,20.5 10.2,25.2 			"/>
			<polygon class="st2" points="24.9,15.6 3.9,34.1 6.1,36.6 25,20 43.9,36.6 46.1,34.1 25.1,15.6 25,15.5 			"/>
		</g>
	</g>
</g>
<g id="menu" class="st0">
	<g class="st1">
		<path class="st2" d="M42.5,38.8c0-1.4-1.1-2.5-2.5-2.5H10c-1.4,0-2.5,1.1-2.5,2.5c0,1.4,1.1,2.5,2.5,2.5h30
			C41.4,41.3,42.5,40.1,42.5,38.8z"/>
		<path class="st2" d="M40,8.7H10c-1.4,0-2.5,1.1-2.5,2.5c0,1.4,1.1,2.5,2.5,2.5h30c1.4,0,2.5-1.1,2.5-2.5C42.5,9.9,41.4,8.7,40,8.7
			z"/>
		<path class="st2" d="M10,27.5h30c1.4,0,2.5-1.1,2.5-2.5c0-1.4-1.1-2.5-2.5-2.5H10c-1.4,0-2.5,1.1-2.5,2.5
			C7.5,26.4,8.6,27.5,10,27.5z"/>
	</g>
</g>
<g id="products" class="st0">
	<g class="st1">
		<path class="st2" d="M44.7,23.9H35l-10-17.4l-10,17.4H5.3l1.5,6.6h36.3L44.7,23.9z M25.1,15l5.1,8.9H20L25.1,15z"/>
		<polygon class="st2" points="9.8,43.5 40.3,43.5 42.2,34.8 7.8,34.8 		"/>
	</g>
</g>
<g id="billing" class="st0">
	<g class="st1">
		<path class="st2" d="M37.7,7.1H22.2v10.5c0,0.7-0.6,1.3-1.3,1.3H10.5v23.8c0,1,0.8,1.8,1.8,1.8h25.5c1,0,1.8-0.8,1.8-1.8V8.9
			C39.5,7.9,38.7,7.1,37.7,7.1z M33.5,40.4H15.8c-0.7,0-1.3-0.6-1.3-1.3c0-0.7,0.6-1.3,1.3-1.3h17.7c0.7,0,1.3,0.6,1.3,1.3
			C34.8,39.9,34.2,40.4,33.5,40.4z M33.5,35.3H15.8c-0.7,0-1.3-0.6-1.3-1.3c0-0.7,0.6-1.3,1.3-1.3h17.7c0.7,0,1.3,0.6,1.3,1.3
			C34.8,34.7,34.2,35.3,33.5,35.3z M33.5,30.3H15.8c-0.7,0-1.3-0.6-1.3-1.3c0-0.7,0.6-1.3,1.3-1.3h17.7c0.7,0,1.3,0.6,1.3,1.3
			C34.8,29.7,34.2,30.3,33.5,30.3z M33.5,25.1H15.8c-0.7,0-1.3-0.6-1.3-1.3c0-0.7,0.6-1.3,1.3-1.3h17.7c0.7,0,1.3,0.6,1.3,1.3
			C34.8,24.6,34.2,25.1,33.5,25.1z"/>
		<path class="st2" d="M19.7,7.1L19.7,7.1c-0.5,0-1,0.2-1.3,0.5L11,15.1c-0.3,0.3-0.5,0.8-0.5,1.3v0h9.3V7.1z"/>
	</g>
</g>
<g id="promo" class="st0">
	<g class="st1">
		<g>
			<path class="st2" d="M43.5,27.7l-1.5-2.2c-0.3-0.4-0.3-0.9,0-1.3l1.5-2.2c1.3-2,0.4-4.8-1.8-5.6l-2.5-1c-0.4-0.2-0.8-0.6-0.8-1.1
				l-0.1-2.7c-0.1-2.4-2.5-4.1-4.8-3.5l-2.6,0.7c-0.5,0.1-1,0-1.3-0.4L28,6.3c-1.5-1.9-4.4-1.9-5.9,0l-1.7,2.1
				c-0.3,0.4-0.8,0.5-1.3,0.4l-2.6-0.7c-2.3-0.6-4.7,1.1-4.8,3.5l-0.1,2.7c0,0.5-0.3,0.9-0.8,1.1l-2.5,1c-2.3,0.9-3.2,3.6-1.8,5.6
				l1.5,2.2c0.3,0.4,0.3,0.9,0,1.3l-1.5,2.2c-1.3,2-0.4,4.8,1.8,5.6l2.5,1c0.4,0.2,0.8,0.6,0.8,1.1l0.1,2.7c0.1,2.4,2.5,4.1,4.8,3.5
				l2.6-0.7c0.5-0.1,1,0,1.3,0.4l1.7,2.1c1.5,1.9,4.4,1.9,5.9,0l1.7-2.1c0.3-0.4,0.8-0.5,1.3-0.4l2.6,0.7c2.3,0.6,4.7-1.1,4.8-3.5
				l0.1-2.7c0-0.5,0.3-0.9,0.8-1.1l2.5-1C44,32.5,44.9,29.7,43.5,27.7z M19.7,17.8c1.4,0,2.6,1.2,2.6,2.6c0,1.4-1.2,2.6-2.6,2.6
				c-1.4,0-2.6-1.2-2.6-2.6C17.1,19,18.3,17.8,19.7,17.8z M29.3,32.5c-1.4,0-2.6-1.2-2.6-2.6c0-1.4,1.2-2.6,2.6-2.6
				c1.4,0,2.6,1.2,2.6,2.6C31.9,31.4,30.7,32.5,29.3,32.5z M31.5,20L19.4,32.2c-0.5,0.5-1.3,0.5-1.8,0c-0.5-0.5-0.5-1.3,0-1.8
				l12.1-12.1c0.5-0.5,1.3-0.5,1.8,0C32,18.7,32,19.5,31.5,20z"/>
		</g>
	</g>
</g>
<g id="videos" class="st0">
	<path class="st3" d="M45.2,8.3H5.9C5.5,8.3,5.2,8.6,5.2,9v30.9c0,0.4,0.3,0.7,0.7,0.7h39.3c0.4,0,0.7-0.3,0.7-0.7V9
		C45.9,8.6,45.6,8.3,45.2,8.3z M12.2,39.2H6.6v-6.3h5.6V39.2z M12.2,31.5H6.6v-6.3h5.6V31.5z M12.2,23.8H6.6v-6.3h5.6V23.8z
		 M12.2,16H6.6V9.7h5.6V16z M30.8,25.1L23.1,30c-0.1,0.1-0.2,0.1-0.4,0.1c-0.1,0-0.2,0-0.3-0.1c-0.2-0.1-0.4-0.4-0.4-0.6v-9.8
		c0-0.3,0.1-0.5,0.4-0.6c0.2-0.1,0.5-0.1,0.7,0l7.7,4.9c0.2,0.1,0.3,0.4,0.3,0.6C31.2,24.7,31.1,24.9,30.8,25.1z M44.5,39.2h-5.6
		v-6.3h5.6V39.2z M44.5,31.5h-5.6v-6.3h5.6V31.5z M44.5,23.8h-5.6v-6.3h5.6V23.8z M44.5,16h-5.6V9.7h5.6V16z"/>
</g>
<g id="service" class="st0">
	<g class="st1">
		<g>
			<path class="st2" d="M28.4,30.1c-0.2,0.1-0.4,0.2-0.6,0.3c-0.3,0.1-0.5,0.2-0.7,0.2c-0.3,0.1-0.5-0.2-0.6-0.4
				c-0.1-0.3-0.1-0.5-0.1-0.7c0.1-0.5,0.2-1,0.3-1.4c0.3-1.4,0.5-2.9,0.8-4.3c0.1-0.4,0.2-0.8,0.1-1.2c0-0.5-0.3-0.7-0.8-0.7
				c-0.6,0-1.3,0-2,0c-0.6,0-1.3,0-1.8,0c-0.2,0-0.3,0-0.5,0.1c-0.3,0.1-0.4,0.2-0.5,0.4c0,0.2,0.1,0.4,0.4,0.5
				c0.2,0.1,0.4,0.1,0.7,0.1c0.5,0.1,0.7,0.3,0.7,0.8c0,0.1,0,0.2,0,0.3c-0.2,1.3-0.4,2.5-0.7,3.8c-0.1,0.7-0.2,1.5-0.3,2.2
				c-0.2,1.1,0.9,2.1,1.7,2.2c0.5,0.1,1,0.1,1.5,0.1c1.1,0,2-0.5,2.7-1.2c0.1-0.1,0.3-0.3,0.3-0.5C29,30.1,28.8,29.9,28.4,30.1z"/>
			<path class="st2" d="M36.6,13.4c-6.1-6.1-15.9-6.1-22,0c-5.9,5.9-6.1,15.2-0.6,21.3l0.1,0.1c-0.6,1.3-1.6,2.8-3.2,3.6
				c-0.5,0.3-0.4,1.1,0.2,1.2c1.8,0.3,4.3,0,6.7-1.8l0.1,0.1c6,3.5,13.8,2.7,18.9-2.4C42.6,29.4,42.6,19.5,36.6,13.4z M25.6,36.4
				c-6.6,0-11.9-5.3-11.9-11.9c0-6.6,5.3-11.9,11.9-11.9c6.6,0,11.9,5.3,11.9,11.9C37.5,31.1,32.2,36.4,25.6,36.4z"/>
			<path class="st2" d="M26,20.8c1.1,0,2-0.9,2-2c0-1.1-0.9-2.1-2-2.1c-1.1,0-2,0.9-2.1,2C23.9,19.9,24.8,20.8,26,20.8z"/>
		</g>
	</g>
</g>
<g id="reference" class="st0">
	<g class="st1">
		<path id="XMLID_103_" class="st2" d="M8.3,15.6h4c1,0,1.9-0.8,1.9-1.9c0-1-0.8-1.9-1.9-1.9h-4c-1,0-1.9,0.8-1.9,1.9
			C6.4,14.8,7.3,15.6,8.3,15.6z"/>
		<path id="XMLID_102_" class="st2" d="M8.3,26.9h4c1,0,1.9-0.8,1.9-1.9c0-1-0.8-1.9-1.9-1.9h-4c-1,0-1.9,0.8-1.9,1.9
			C6.4,26.1,7.3,26.9,8.3,26.9z"/>
		<path id="XMLID_101_" class="st2" d="M14.1,36.3c0-1-0.8-1.9-1.9-1.9h-4c-1,0-1.9,0.8-1.9,1.9c0,1,0.8,1.9,1.9,1.9h4
			C13.3,38.1,14.1,37.3,14.1,36.3z"/>
		<path id="XMLID_100_" class="st2" d="M42.1,16.7h-2.3v5.8h2.3c0.8,0,1.4-0.6,1.4-1.4v-2.9C43.6,17.4,42.9,16.7,42.1,16.7z"/>
		<path id="XMLID_99_" class="st2" d="M42.1,25.2h-2.3V31h2.3c0.8,0,1.4-0.6,1.4-1.4v-2.9C43.6,25.9,42.9,25.2,42.1,25.2z"/>
		<path id="XMLID_98_" class="st2" d="M42.1,33.7h-2.3v5.8h2.3c0.8,0,1.4-0.6,1.4-1.4v-2.9C43.6,34.3,42.9,33.7,42.1,33.7z"/>
	</g>
	<path class="st3" d="M35.7,6.2H11.9c-1.2,0-2.2,1-2.2,2.3v2.1h2.6c1.7,0,3.1,1.4,3.1,3.1c0,1.7-1.4,3.1-3.1,3.1H9.7v5h2.6
		c1.7,0,3.1,1.4,3.1,3.1c0,1.7-1.4,3.1-3.1,3.1H9.7v4.9h2.6c1.7,0,3.1,1.4,3.1,3.2c0,1.7-1.4,3.2-3.1,3.2H9.7v2.1
		c0,1.2,1,2.2,2.2,2.2h23.8c1.2,0,2.3-1,2.3-2.2v-33C38,7.3,36.9,6.2,35.7,6.2z M29.9,34c-0.5,0.2-1.1,0.4-1.6,0.7
		c-0.8,0.4-1.5,0.3-2.3-0.1c-1-0.5-1.9-1.3-2.7-2.2c-1.7-2-3-4.2-3.8-6.7c-0.6-1.9-0.9-3.7-0.8-5.7c0-0.9,0.2-1.9,0.6-2.7
		c0.3-0.5,0.7-0.9,1.2-1.1c0.6-0.2,1.2-0.5,1.8-0.7c0.8-0.3,1.5,0,1.8,0.7c0.2,0.5,0.4,1,0.6,1.5c0.2,0.5,0.4,0.9,0.6,1.4
		c0.3,0.8,0.1,1.5-0.8,1.8c-0.6,0.2-1.2,0.5-1.8,0.7c-0.2,0.1-0.2,0.1-0.2,0.3c0,0.8,0.2,1.5,0.4,2.3c0.4,1.5,1.1,2.9,2,4.2
		c0.2,0.3,0.4,0.5,0.6,0.8c0.1,0.1,0.2,0.1,0.4,0.1c0.6-0.2,1.2-0.5,1.8-0.7c0.8-0.3,1.5,0,1.8,0.7c0.4,1,0.8,1.9,1.2,2.9
		C31,33,30.7,33.7,29.9,34z"/>
</g>
<g id="ssc" class="st0">
	<g class="st1">
		<path class="st2" d="M30,33.1c-0.7,0.8-1.5,1.4-2.1,2c4.3,0.4,6.9,1.8,6.9,2.6c0,1-3.7,2.7-9.8,2.7c-6.1,0-9.8-1.8-9.8-2.7
			c0-0.8,2.5-2.1,6.6-2.6c-0.6-0.5-1.3-1.2-2.1-2C16,33.8,13,35.4,13,37.7c0,3.3,6,5,12,5c6,0,12-1.7,12-5
			C37,35.3,33.9,33.8,30,33.1z"/>
		<path class="st2" d="M14.9,17.4c0,6.2,6.2,12.5,9.3,15.3c0,0,0,0,0,0c0.2,0.2,0.4,0.4,0.6,0.5c2.8-2.4,10-9.2,10-15.9
			c0-5.5-4.4-10-9.9-10.1c0,0,0,0-0.1,0c0,0,0,0-0.1,0C19.3,7.4,14.9,11.9,14.9,17.4z M25,11.2c2.9,0,5.2,2.3,5.2,5.2
			c0,2.9-2.3,5.2-5.2,5.2s-5.2-2.3-5.2-5.2C19.7,13.5,22.1,11.2,25,11.2z"/>
	</g>
</g>
<g id="repair">
	<g>
		<g>
			<path class="st2" d="M41.6,17.5h-4.3c-0.3,0-0.6-0.3-0.6-0.6v-4.6c0-1.4-1.1-2.5-2.5-2.5H15.6c-1.4,0-2.5,1.1-2.5,2.5v4.6
				c0,0.3-0.3,0.6-0.6,0.6H8.4c-1.4,0-2.5,1.1-2.5,2.5v2.4c0,0.9,0.5,1.7,1.3,2.1v6.8c0,0.7,0.6,1.4,1.4,1.4h32.7
				c0.7,0,1.4-0.6,1.4-1.4v-6.8c0.9-0.4,1.5-1.2,1.5-2.2v-2.4C44.1,18.6,43,17.5,41.6,17.5z M34,16.9c0,0.3-0.3,0.6-0.6,0.6h-17
				c-0.3,0-0.6-0.3-0.6-0.6v-3.7c0-0.3,0.3-0.6,0.6-0.6h17c0.3,0,0.6,0.3,0.6,0.6V16.9z"/>
		</g>
	</g>
	<g>
		<g>
			<path class="st2" d="M41.3,35.3H8.6c-0.7,0-1.4,0.6-1.4,1.4v1c0,1.4,1.1,2.5,2.5,2.5h30.5c1.4,0,2.5-1.1,2.5-2.5v-1
				C42.6,36,42,35.3,41.3,35.3z"/>
		</g>
	</g>
</g>
</svg>
